<?xml version="1.0" encoding="UTF-8"?>
<svg version="1.1" xmlns="http://www.w3.org/2000/svg" width="64" height="64">
<path d="M0 0 C3.3 0 6.6 0 10 0 C9.97679687 0.95261719 9.95359375 1.90523438 9.9296875 2.88671875 C9.91164063 4.14097656 9.89359375 5.39523438 9.875 6.6875 C9.85179687 7.92886719 9.82859375 9.17023437 9.8046875 10.44921875 C9.99328422 13.87790709 10.40777042 15.9895262 12 19 C12.51230667 19.45824661 13.02461334 19.91649323 13.55244446 20.3886261 C15.36343001 22.40455901 15.36588513 23.33813774 15.34057617 26.01245117 C15.34034958 26.81305466 15.34012299 27.61365814 15.33988953 28.43852234 C15.32440567 29.29798965 15.30892181 30.15745697 15.29296875 31.04296875 C15.28872391 31.9265657 15.28447906 32.81016266 15.28010559 33.72053528 C15.26331043 36.54316661 15.22565697 39.36508441 15.1875 42.1875 C15.17245423 44.10090115 15.15876564 46.01431349 15.14648438 47.92773438 C15.11595562 52.61898575 15.0572369 57.30869406 15 62 C8.4 62 1.8 62 -5 62 C-5.09186517 56.37581014 -5.17149035 50.7542254 -5.21972656 45.12988281 C-5.23983452 43.21703265 -5.26712507 41.30424389 -5.30175781 39.39160156 C-5.35031249 36.64112189 -5.37297658 33.89145523 -5.390625 31.140625 C-5.41127014 30.28631897 -5.43191528 29.43201294 -5.45318604 28.55181885 C-5.45544502 22.5662563 -5.45544502 22.5662563 -3.0222168 19.54101562 C-2.35488525 19.03248047 -1.68755371 18.52394531 -1 18 C0.48413465 14.4256443 0.09783749 10.56644845 0.0625 6.75 C0.05347656 5.48671875 0.04445313 4.2234375 0.03515625 2.921875 C0.02355469 1.95765625 0.01195312 0.9934375 0 0 Z " fill="#EECA31" transform="translate(27,2)"/>
<path d="M0 0 C3.3 0 6.6 0 10 0 C9.97679687 0.95261719 9.95359375 1.90523438 9.9296875 2.88671875 C9.91164063 4.14097656 9.89359375 5.39523438 9.875 6.6875 C9.85179687 7.92886719 9.82859375 9.17023437 9.8046875 10.44921875 C9.99328422 13.87790709 10.40777042 15.9895262 12 19 C12.53238281 19.43957031 13.06476562 19.87914063 13.61328125 20.33203125 C15.89227411 23.07324239 15.31096955 26.29683617 15.1875 29.6875 C15.16719727 30.7403418 15.16719727 30.7403418 15.14648438 31.81445312 C15.11120182 33.54329829 15.05739583 35.27174765 15 37 C13.68 37 12.36 37 11 37 C10.67 35.02 10.34 33.04 10 31 C7.03 31 4.06 31 1 31 C0.34 32.98 -0.32 34.96 -1 37 C-1.33 37 -1.66 37 -2 37 C-2.10832169 34.91781638 -2.18573541 32.83400871 -2.25 30.75 C-2.29640625 29.58984375 -2.3428125 28.4296875 -2.390625 27.234375 C-1.92264222 23.35947756 -0.88261591 22.48653129 2 20 C3.10514766 16.68455701 3.32107631 13.79589889 3.5625 10.3125 C3.64628906 9.13300781 3.73007812 7.95351562 3.81640625 6.73828125 C3.87699219 5.83464844 3.93757813 4.93101562 4 4 C3.34 4 2.68 4 2 4 C1.67 5.32 1.34 6.64 1 8 C0.67 5.36 0.34 2.72 0 0 Z " fill="#501D0B" transform="translate(27,2)"/>
<path d="M0 0 C0.33 0 0.66 0 1 0 C1 5.28 1 10.56 1 16 C1.66 16 2.32 16 3 16 C3 10.72 3 5.44 3 0 C3.33 0 3.66 0 4 0 C4.66 1.98 5.32 3.96 6 6 C8.97 6 11.94 6 15 6 C15.33 4.02 15.66 2.04 16 0 C17.32 0 18.64 0 20 0 C20 6.27 20 12.54 20 19 C13.4 19 6.8 19 0 19 C0 12.73 0 6.46 0 0 Z " fill="#511C0B" transform="translate(22,45)"/>
<path d="M0 0 C0.33 0 0.66 0 1 0 C1 5.28 1 10.56 1 16 C1.66 16 2.32 16 3 16 C3 10.72 3 5.44 3 0 C3.33 0 3.66 0 4 0 C4.309375 1.423125 4.309375 1.423125 4.625 2.875 C5.70833333 6.29166667 5.70833333 6.29166667 9.125 7.375 C10.07375 7.58125 11.0225 7.7875 12 8 C12 10.97 12 13.94 12 17 C8.04 17 4.08 17 0 17 C0 11.39 0 5.78 0 0 Z " fill="#1C2919" transform="translate(22,45)"/>
<path d="M0 0 C1.32 0.33 2.64 0.66 4 1 C4 2.98 4 4.96 4 7 C5.32 7 6.64 7 8 7 C8 8.98 8 10.96 8 13 C6.68 13 5.36 13 4 13 C4 14.98 4 16.96 4 19 C2.68 19.33 1.36 19.66 0 20 C0 13.4 0 6.8 0 0 Z " fill="#F69F21" transform="translate(34,32)"/>
<path d="M0 0 C0.33 0 0.66 0 1 0 C2.7479503 5.24385089 3.19392201 9.47322267 3 15 C2.05125 15.20625 1.1025 15.4125 0.125 15.625 C-3.29166667 16.70833333 -3.29166667 16.70833333 -4.375 20.125 C-4.58125 21.07375 -4.7875 22.0225 -5 23 C-5.33 23 -5.66 23 -6 23 C-6.10832169 20.91781638 -6.18573541 18.83400871 -6.25 16.75 C-6.29640625 15.58984375 -6.3428125 14.4296875 -6.390625 13.234375 C-5.92190499 9.35337334 -4.88611224 8.49255148 -2 6 C-0.73215876 2.86649283 -0.73215876 2.86649283 0 0 Z " fill="#1E2A1B" transform="translate(31,16)"/>
<path d="M0 0 C3.3 0 6.6 0 10 0 C9.67 4.62 9.34 9.24 9 14 C7.35 14 5.7 14 4 14 C4 10.7 4 7.4 4 4 C3.34 4 2.68 4 2 4 C1.67 5.32 1.34 6.64 1 8 C0.67 5.36 0.34 2.72 0 0 Z " fill="#7E5011" transform="translate(27,2)"/>
<path d="M0 0 C0.66 0 1.32 0 2 0 C2.08150744 2.06183633 2.1394194 4.12461349 2.1875 6.1875 C2.22230469 7.33605469 2.25710937 8.48460937 2.29296875 9.66796875 C1.88827165 14.27072382 0.21682591 16.78317409 -3 20 C-3.46486718 23.12196336 -3.46486718 23.12196336 -3.625 26.625 C-3.69976563 27.81351563 -3.77453125 29.00203125 -3.8515625 30.2265625 C-3.90054687 31.14179687 -3.94953125 32.05703125 -4 33 C-4.66 33 -5.32 33 -6 33 C-6.78137083 21.29680141 -6.78137083 21.29680141 -4.88671875 18.15234375 C-4.42910156 17.71019531 -3.97148437 17.26804687 -3.5 16.8125 C-0.65771858 13.6149334 -0.67892665 12.95579463 -0.75 8.875 C-0.80671875 8.04742187 -0.8634375 7.21984375 -0.921875 6.3671875 C-0.9993334 4.02019811 -0.67967239 2.23468042 0 0 Z " fill="#C8CBC8" transform="translate(29,6)"/>
<path d="M0 0 C0.66 0 1.32 0 2 0 C1.49459042 5.55950541 1.49459042 5.55950541 -1 7.78125 C-3.6829694 10.75766918 -3.5919091 12.79772738 -3.75 16.75 C-3.80671875 17.92046875 -3.8634375 19.0909375 -3.921875 20.296875 C-3.94765625 21.18890625 -3.9734375 22.0809375 -4 23 C-4.33 23 -4.66 23 -5 23 C-5.10826289 20.5821288 -5.18739789 18.16912444 -5.25 15.75 C-5.28351562 15.06808594 -5.31703125 14.38617188 -5.3515625 13.68359375 C-5.42014848 10.15141582 -5.34141462 8.40644598 -3.03125 5.65625 C-2.3609375 5.1096875 -1.690625 4.563125 -1 4 C-0.2127322 1.8618034 -0.2127322 1.8618034 0 0 Z " fill="#222E21" transform="translate(27,16)"/>
<path d="M0 0 C1.65 0 3.3 0 5 0 C5 1.98 5 3.96 5 6 C3.35 6 1.7 6 0 6 C0 4.02 0 2.04 0 0 Z " fill="#FAA81A" transform="translate(31,10)"/>
<path d="M0 0 C-0.33 1.65 -0.66 3.3 -1 5 C-2.32 5 -3.64 5 -5 5 C-5.33 3.35 -5.66 1.7 -6 0 C-3.50907189 -1.24546405 -2.58919267 -0.7767578 0 0 Z " fill="#FEF9EA" transform="translate(35,40)"/>
<path d="M0 0 C0.66 0 1.32 0 2 0 C2 3.3 2 6.6 2 10 C1.01 10 0.02 10 -1 10 C-0.67 6.7 -0.34 3.4 0 0 Z " fill="#E5D692" transform="translate(29,6)"/>
<path d="M0 0 C0.99 0 1.98 0 3 0 C3 1.98 3 3.96 3 6 C2.01 6 1.02 6 0 6 C0 4.02 0 2.04 0 0 Z " fill="#FCE584" transform="translate(22,39)"/>
</svg>
